<?xml version="1.0" encoding="UTF-8"?>
<svg width="1108px" height="1110px" viewBox="0 0 1108 1110" version="1.1" xmlns="http://www.w3.org/2000/svg" xmlns:xlink="http://www.w3.org/1999/xlink">
    <!-- Generator: Sketch 55.2 (78181) - https://sketchapp.com -->
    <title>Group 2circl_proper_side</title>
    <desc>Created with Sketch.</desc>
    <g id="Desktop" stroke="none" stroke-width="1" fill="none" fill-rule="evenodd">
        <g id="1.0_Home" transform="translate(-129.000000, -421.000000)">
            <g id="Group-2" transform="translate(121.000000, 421.000000)">
                <g id="Tokens-Bottom" transform="translate(6.000000, 591.000000)">
                    <g id="token/krw/blue" transform="translate(48.000000, 133.000000) rotate(-109.000000) translate(-48.000000, -133.000000) translate(27.000000, 112.000000)">
                        <circle id="Oval" fill="#FFFFFF" cx="21.5" cy="20.5" r="19.5"></circle>
                        <g id="eur" stroke-width="1" fill="#07233B">
                            <path d="M21,42 C9.4014375,42 0,32.5985625 0,21 C0,9.4014375 9.4014375,0 21,0 C32.5985625,0 42,9.4014375 42,21 C42,32.5985625 32.5985625,42 21,42 Z" id="Shape" fill-rule="nonzero"></path>
                        </g>
                        <polygon id="Rectangle" fill="#FFFFFF" points="7.5 12.6 12.3621826 12.6 15.0883741 20.0465196 12.7047325 27.1579007"></polygon>
                        <path d="M19.362915,12.6 L23.4530029,12.6 L26.1577289,20.4016852 L23.8805741,27.1227791 L21.1903684,19.5812861 L18.017334,29.371582 L13.8,29.371582 L19.1727417,12.6 L19.362915,12.6 Z" id="Combined-Shape" fill="#FFFFFF"></path>
                        <polygon id="Rectangle-Copy" fill="#FFFFFF" transform="translate(29.943054, 20.985791) scale(-1, 1) translate(-29.943054, -20.985791) " points="24.9685059 12.6 29.5448608 12.6 34.9176025 29.371582 30.4041748 29.371582"></polygon>
                    </g>
                    <g id="token/euro/blue" transform="translate(342.000000, 454.000000) rotate(-156.000000) translate(-342.000000, -454.000000) translate(321.000000, 433.000000)">
                        <circle id="Oval" fill="#FFFFFF" cx="21.5" cy="20.5" r="19.5"></circle>
                        <g id="eur" stroke-width="1" fill="#07233B">
                            <path d="M21,42 C9.4014375,42 0,32.5985625 0,21 C0,9.4014375 9.4014375,0 21,0 C32.5985625,0 42,9.4014375 42,21 C42,32.5985625 32.5985625,42 21,42 Z M10.5,24.94275 L13.117125,24.94275 C14.5648125,30.1875 18.0245625,32.8125 23.49375,32.8125 C25.5740625,32.8125 27.3669375,32.529 28.875,31.962 L28.875,28.8474375 C27.2881875,29.4958125 25.83,29.8186875 24.499125,29.8186875 C22.6366875,29.8186875 21.202125,29.463 20.1980625,28.749 C19.1926875,28.0336875 18.3395625,26.7658125 17.64,24.94275 L24.14475,24.94275 L25.19475,22.3138125 L17.07825,22.3138125 C17.038875,21.8176875 17.0191875,21.2559375 17.0191875,20.62725 C17.0191875,20.08125 17.044125,19.6455 17.0926875,19.3213125 L26.4061875,19.3213125 L27.470625,16.692375 L17.72925,16.692375 C18.6650625,13.684125 20.769,12.18 24.0410625,12.18 C25.7064764,12.171813 27.3544714,12.519042 28.875,13.1985 L28.875,9.88575 C27.2114068,9.41350912 25.4894855,9.17844057 23.7601875,9.1875 C18.3001875,9.1875 14.791875,11.689125 13.2339375,16.692375 L11.56575,16.692375 L10.5,19.3213125 L12.718125,19.3213125 C12.6667656,19.8666625 12.641799,20.4141765 12.6433125,20.9619375 C12.6433125,21.3976875 12.65775,21.847875 12.6879375,22.3138125 L11.563125,22.3138125 L10.5,24.94275 Z" id="Shape" fill-rule="nonzero"></path>
                        </g>
                    </g>
                    <g id="token/eth/blue" transform="translate(555.000000, 498.000000) rotate(180.000000) translate(-555.000000, -498.000000) translate(534.000000, 477.000000)">
                        <circle id="Oval" fill="#FFFFFF" cx="21.5" cy="20.5" r="19.5"></circle>
                        <g id="eth" stroke-width="1" fill="#07233B">
                            <path d="M21,42 C9.4014375,42 0,32.5985625 0,21 C0,9.4014375 9.4014375,0 21,0 C32.5985625,0 42,9.4014375 42,21 C42,32.5985625 32.5985625,42 21,42 Z M31.492125,21.2874375 L21.653625,5.25 L11.8125,21.28875 L21.653625,27.0020625 L31.492125,21.2874375 Z M31.5,23.121 L21.653625,28.8316875 L11.8125,23.1223125 L21.653625,36.7434375 L31.5,23.121 Z" id="Shape" fill-rule="nonzero"></path>
                            <g id="Group" transform="translate(11.812500, 5.250000)" fill-rule="nonzero">
                                <path d="M9.841125,0 L9.841125,11.641875 L19.6809375,16.03875 L9.841125,0 Z M9.841125,23.583 L9.841125,31.4934375 L19.6875,17.871 L9.841125,23.583 Z" id="Shape" fill-opacity="0.3"></path>
                                <polygon id="Path" fill-opacity="0.8" points="9.841125 21.7520625 19.6809375 16.03875 9.841125 11.6445"></polygon>
                                <polygon id="Path" fill-opacity="0.3" points="0 16.03875 9.841125 21.7520625 9.841125 11.6445"></polygon>
                            </g>
                        </g>
                    </g>
                    <g id="token/ltc/blue" transform="translate(448.000000, 488.000000) rotate(-168.000000) translate(-448.000000, -488.000000) translate(427.000000, 467.000000)">
                        <circle id="Oval" fill="#FFFFFF" cx="21.5" cy="20.5" r="19.5"></circle>
                        <g id="ltc" stroke-width="1" fill="#07233B">
                            <path d="M21,42 C9.4014375,42 0,32.5985625 0,21 C0,9.4014375 9.4014375,0 21,0 C32.5985625,0 42,9.4014375 42,21 C42,32.5985625 32.5985625,42 21,42 Z M13.6854375,25.218375 L12.14325,31.5 L29.0416875,31.5 L30.1875,26.8130625 L20.052375,26.8130625 L21.165375,22.241625 L23.0383125,21.4921875 L23.9308125,17.8828125 L22.0801875,18.63225 L24.073875,10.5 L17.3420625,10.5 L14.61075,21.5630625 L12.7155,22.3243125 L11.8125,25.9455 L13.6854375,25.218375 L13.6854375,25.218375 Z" id="Shape" fill-rule="nonzero"></path>
                        </g>
                    </g>
                    <g id="token/eos/blue" transform="translate(24.000000, 24.000000) rotate(-96.000000) translate(-24.000000, -24.000000) translate(3.000000, 3.000000)">
                        <circle id="Oval" fill="#FFFFFF" cx="21.5" cy="20.5" r="19.5"></circle>
                        <g id="eos" stroke-width="1" fill="#07233B">
                            <path d="M21,42 C9.4014375,42 0,32.5985625 0,21 C0,9.4014375 9.4014375,0 21,0 C32.5985625,0 42,9.4014375 42,21 C42,32.5985625 32.5985625,42 21,42 Z M13.87575,15.1554375 L10.633875,29.9656875 C10.5849929,30.1523184 10.6687031,30.3483623 10.8373125,30.442125 L20.776875,36.6699375 C20.850375,36.715875 20.929125,36.7355824 21.0039375,36.7355824 C21.0848233,36.7363526 21.1641853,36.7135474 21.2323125,36.6699375 L31.171875,30.442125 C31.3399815,30.3479582 31.423112,30.1520076 31.374,29.9656875 L28.132125,15.1554375 C28.119797,15.0935955 28.0937865,15.0352961 28.056,14.9848125 L21.349125,5.8209375 C21.2703909,5.70896132 21.140771,5.64390495 21.0039375,5.64753116 C20.867564,5.64434871 20.7385367,5.70935485 20.6600625,5.8209375 L13.9531875,14.986125 C13.9149333,15.0364893 13.8884705,15.0947973 13.87575,15.15675 L13.87575,15.1554375 Z M12.0448125,27.449625 L14.364,16.85775 L15.689625,21.0196875 L12.0448125,27.449625 Z M11.7613125,29.654625 L16.036125,22.110375 L18.438,29.6533125 L11.76,29.6533125 L11.7613125,29.654625 Z M12.502875,30.494625 L18.70575,30.494625 L20.251875,35.3495625 L12.502875,30.4933125 L12.502875,30.494625 Z M16.2526875,20.0235 L14.7525,15.31425 L20.58,7.3539375 L20.58,12.3886875 L16.2526875,20.0235 Z M21.0039375,34.9453125 L19.5864375,30.4933125 L22.4214375,30.4933125 L21.0039375,34.9453125 Z M21.7573125,35.3495625 L23.3034375,30.4933125 L29.5063125,30.4933125 L21.7573125,35.3495625 Z M27.6451875,16.85775 L29.9630625,27.449625 L26.3195625,21.0196875 L27.6451875,16.8590625 L27.6451875,16.85775 Z M25.7551875,20.0235 L21.4291875,12.39 L21.4291875,7.3539375 L27.2566875,15.31425 L25.7551875,20.0235 L25.7551875,20.0235 Z M30.2465625,29.6533125 L23.5725,29.6533125 L25.974375,22.110375 L30.247875,29.6533125 L30.2465625,29.6533125 Z M21.0039375,13.342875 L25.4086875,21.1141875 L22.6891875,29.6533125 L19.32,29.6533125 L16.6005,21.1141875 L21.0039375,13.342875 Z" id="Shape" fill-rule="nonzero"></path>
                        </g>
                    </g>
                    <g id="token/bnb/blue" transform="translate(94.000000, 235.000000) rotate(-121.000000) translate(-94.000000, -235.000000) translate(73.000000, 214.000000)">
                        <circle id="Oval" fill="#FFFFFF" cx="21.5" cy="20.5" r="19.5"></circle>
                        <g id="bnb" stroke-width="1" fill="#07233B">
                            <path d="M21,42 C9.4014375,42 0,32.5985625 0,21 C0,9.4014375 9.4014375,0 21,0 C32.5985625,0 42,9.4014375 42,21 C42,32.5985625 32.5985625,42 21,42 Z M15.90225,18.90525 L21,13.8075 L26.100375,18.907875 L29.066625,15.941625 L21,7.875 L12.936,15.939 L15.90225,18.90525 Z M7.875,21 L10.84125,23.96625 L13.8075,21 L10.84125,18.03375 L7.875,21 Z M15.90225,23.09475 L12.9320625,26.0570625 L12.936,26.061 L21,34.125 L29.066625,26.058375 L29.066625,26.0570625 L26.100375,23.0908125 L21,28.1925 L15.90225,23.09475 Z M28.1925,21 L31.15875,23.96625 L34.125,21 L31.15875,18.03375 L28.1925,21 Z M24.00825,20.997375 L24.0095625,20.997375 L21,17.989125 L18.7753125,20.2125 L18.519375,20.4684375 L17.9930625,20.9960625 L17.9878125,21 L17.9930625,21.0039375 L20.9986875,24.010875 L24.0095625,21.0013125 L24.010875,21 L24.00825,20.9986875 L24.00825,20.997375 Z" id="Shape" fill-rule="nonzero"></path>
                        </g>
                    </g>
                    <g id="token/usdt/blue" transform="translate(161.000000, 325.000000) rotate(-132.000000) translate(-161.000000, -325.000000) translate(140.000000, 304.000000)">
                        <circle id="Oval" fill="#FFFFFF" cx="21.5" cy="20.5" r="19.5"></circle>
                        <g id="usdt" stroke-width="1" fill="#07233B">
                            <path d="M21,42 C9.4014375,42 0,32.5985625 0,21 C0,9.4014375 9.4014375,0 21,0 C32.5985625,0 42,9.4014375 42,21 C42,32.5985625 32.5985625,42 21,42 Z M23.522625,18.1033125 L23.522625,14.9979375 L30.6285,14.9979375 L30.6285,10.2624375 L11.2809375,10.2624375 L11.2809375,14.9979375 L18.3868125,14.9979375 L18.3868125,18.102 C12.6118125,18.367125 8.26875,19.511625 8.26875,20.881875 C8.26875,22.252125 12.6118125,23.3953125 18.3868125,23.66175 L18.3868125,33.613125 L23.522625,33.613125 L23.522625,23.659125 C29.2884375,23.394 33.621,22.2508125 33.621,20.881875 C33.621,19.5129375 29.2884375,18.36975 23.522625,18.1033125 Z M23.522625,22.8151875 L23.522625,22.8125625 C23.37825,22.8230625 22.6340625,22.8676875 20.97375,22.8676875 C19.648125,22.8676875 18.7149375,22.8283125 18.3868125,22.8125625 L18.3868125,22.8165 C13.2838125,22.5920625 9.4749375,21.7035 9.4749375,20.640375 C9.4749375,19.5785625 13.2838125,18.69 18.3868125,18.461625 L18.3868125,21.931875 C18.7201875,21.9555 19.6756875,22.0119375 20.9960625,22.0119375 C22.58025,22.0119375 23.3743125,21.9463125 23.522625,21.9331875 L23.522625,18.46425 C28.615125,18.6913125 32.4148125,19.579875 32.4148125,20.640375 C32.4148125,21.7035 28.615125,22.5894375 23.522625,22.8151875 L23.522625,22.8151875 Z" id="Shape" fill-rule="nonzero"></path>
                        </g>
                    </g>
                    <g id="token/trx/blue" transform="translate(245.000000, 399.000000) rotate(-144.000000) translate(-245.000000, -399.000000) translate(224.000000, 378.000000)">
                        <circle id="Oval" fill="#FFFFFF" cx="21.5" cy="20.5" r="19.5"></circle>
                        <g id="trx" stroke-width="1" fill="#07233B">
                            <path d="M21,42 C9.4014375,42 0,32.5985625 0,21 C0,9.4014375 9.4014375,0 21,0 C32.5985625,0 42,9.4014375 42,21 C42,32.5985625 32.5985625,42 21,42 Z M32.4778125,16.099125 C31.429125,15.3549375 30.3069375,14.560875 29.2096875,13.773375 C29.18475,13.755 29.161125,13.736625 29.1309375,13.71825 C29.0023607,13.6126651 28.8567927,13.5296737 28.7004375,13.4728125 L28.6873125,13.46625 C25.7513447,12.7457938 22.8161555,12.0221684 19.88175,11.295375 L12.02775,9.3568125 L11.8216875,9.3016875 C11.5854375,9.23475 11.3124375,9.1599375 11.0210625,9.1966875 C10.9412518,9.20891393 10.8650903,9.23848253 10.7979375,9.2833125 L10.7244375,9.345 C10.6324015,9.43937142 10.5620769,9.55269719 10.518375,9.6770625 L10.5,9.7269375 L10.5,10.009125 L10.513125,10.0524375 C12.166875,14.75775 13.86525,19.5313125 15.50325,24.15 C16.7645625,27.706875 18.07575,31.38975 19.354125,35.007 C19.432875,35.2524375 19.6573125,35.413875 19.936875,35.4377248 L19.99725,35.4377248 C20.2460597,35.4438796 20.4785417,35.314052 20.603625,35.098875 L25.407375,27.9943125 C26.5768125,26.26575 27.7475625,24.5319375 28.9183125,22.803375 L30.3555,20.6745 C31.143,19.506375 31.95675,18.3001875 32.7639375,17.1255 L32.8059375,17.065125 L32.8059375,16.9903125 C32.8243125,16.7750625 32.8295625,16.33275 32.4778125,16.0978125 L32.4778125,16.099125 Z M26.8498125,18.6886875 C25.7210625,19.2845625 24.57,19.900125 23.4110625,20.509125 L25.4375625,18.30675 C26.2801875,17.3840625 27.1595625,16.429875 28.0205625,15.495375 L28.0389375,15.477 C28.111125,15.3785625 28.203,15.2866875 28.300125,15.18825 C28.36575,15.1213125 28.43925,15.0530625 28.5061875,14.973 C28.9550625,15.288 29.4091875,15.6069375 29.84625,15.920625 C30.16125,16.1476875 30.4828125,16.3760625 30.8109375,16.603125 C29.4859676,17.2895502 28.1655636,17.984753 26.8498125,18.6886875 L26.8498125,18.6886875 Z M23.9518125,18.393375 C23.08425,19.34625 22.1865,20.3240625 21.2953125,21.2900625 C19.5657166,19.1618469 17.8310241,17.0377783 16.09125,14.917875 L13.7563125,12.06975 L13.7510625,12.0631875 C13.5751875,11.8610625 13.4045625,11.63925 13.23525,11.4305625 C13.1263125,11.2888125 13.0108125,11.153625 12.8953125,11.011875 C13.5988125,11.195625 14.308875,11.368875 15.0058125,11.53425 C15.61875,11.6825625 16.2553125,11.836125 16.8800625,11.99625 L27.439125,14.597625 C26.268375,15.8655 25.0910625,17.1504375 23.9518125,18.393375 L23.9518125,18.393375 Z M20.90025,30.38175 C20.9671875,29.736 21.0406875,29.071875 21.1010625,28.4195625 C21.1561875,27.895875 21.21,27.3616875 21.265125,26.851125 C21.349125,26.032125 21.441,25.18425 21.5145,24.3534375 L21.5315625,24.2064375 C21.5919375,23.6761875 21.6523125,23.1301875 21.6890625,22.5815625 C21.7596917,22.5416946 21.832919,22.5066156 21.90825,22.4765625 C21.9988125,22.4345625 22.089375,22.3978125 22.1799375,22.3426875 C23.5807949,21.5960903 24.9838636,20.8536495 26.389125,20.115375 C27.790875,19.37775 29.2280625,18.613875 30.6534375,17.857875 C29.3600971,19.7573802 28.072092,21.6605127 26.7894375,23.56725 C25.704,25.171125 24.588375,26.8261875 23.478,28.4563125 C23.04225,29.108625 22.5868125,29.77275 22.1563125,30.4119375 C21.6706875,31.1259375 21.17325,31.857 20.6889375,32.5906875 C20.7493125,31.85175 20.8215,31.1075625 20.90025,30.38175 L20.90025,30.38175 Z M12.44775,12.4635 C12.369,12.2416875 12.282375,12.014625 12.2101875,11.799375 C13.8481875,13.804875 15.4966875,15.8221875 17.1045,17.7778125 C17.9353125,18.792375 18.766125,19.8016875 19.5969375,20.8228125 C19.761,21.013125 19.9250625,21.2165625 20.0825625,21.4134375 C20.288625,21.6654375 20.4946875,21.9305625 20.719125,22.1825625 C20.645625,22.8151875 20.58525,23.4556875 20.5183125,24.0699375 C20.4763125,24.5004375 20.4343125,24.93225 20.38575,25.3693125 L20.38575,25.3745625 C20.367375,25.6501875 20.330625,25.9284375 20.3004375,26.1988125 L20.1613125,27.423375 L20.15475,27.465375 C20.0458125,28.7083125 19.9119375,29.9630625 19.784625,31.1810625 C19.7308125,31.6850625 19.68225,32.2021875 19.627125,32.7193125 C19.5969375,32.6274375 19.5615,32.53425 19.53,32.447625 C19.4375363,32.1969267 19.3487145,31.9449002 19.2635625,31.691625 L18.613875,29.864625 L12.4464375,12.4635 L12.44775,12.4635 Z" id="Shape" fill-rule="nonzero"></path>
                        </g>
                    </g>
                </g>
                <g id="Tokens-Bottom" transform="translate(828.000000, 259.500000) scale(-1, -1) translate(-828.000000, -259.500000) translate(540.000000, 0.000000)">
                    <g id="token/krw/blue" transform="translate(48.000000, 133.000000) rotate(-109.000000) translate(-48.000000, -133.000000) translate(27.000000, 112.000000)">
                        <circle id="Oval" fill="#FFFFFF" cx="21.5" cy="20.5" r="19.5"></circle>
                        <g id="eur" stroke-width="1" fill="#07233B">
                            <path d="M21,42 C9.4014375,42 0,32.5985625 0,21 C0,9.4014375 9.4014375,0 21,0 C32.5985625,0 42,9.4014375 42,21 C42,32.5985625 32.5985625,42 21,42 Z" id="Shape" fill-rule="nonzero"></path>
                        </g>
                        <polygon id="Rectangle" fill="#FFFFFF" points="7.5 12.6 12.3621826 12.6 15.0883741 20.0465196 12.7047325 27.1579007"></polygon>
                        <path d="M19.362915,12.6 L23.4530029,12.6 L26.1577289,20.4016852 L23.8805741,27.1227791 L21.1903684,19.5812861 L18.017334,29.371582 L13.8,29.371582 L19.1727417,12.6 L19.362915,12.6 Z" id="Combined-Shape" fill="#FFFFFF"></path>
                        <polygon id="Rectangle-Copy" fill="#FFFFFF" transform="translate(29.943054, 20.985791) scale(-1, 1) translate(-29.943054, -20.985791) " points="24.9685059 12.6 29.5448608 12.6 34.9176025 29.371582 30.4041748 29.371582"></polygon>
                    </g>
                    <g id="token/euro/blue" transform="translate(342.000000, 454.000000) rotate(-156.000000) translate(-342.000000, -454.000000) translate(321.000000, 433.000000)">
                        <circle id="Oval" fill="#FFFFFF" cx="21.5" cy="20.5" r="19.5"></circle>
                        <g id="eur" stroke-width="1" fill="#07233B">
                            <path d="M21,42 C9.4014375,42 0,32.5985625 0,21 C0,9.4014375 9.4014375,0 21,0 C32.5985625,0 42,9.4014375 42,21 C42,32.5985625 32.5985625,42 21,42 Z M10.5,24.94275 L13.117125,24.94275 C14.5648125,30.1875 18.0245625,32.8125 23.49375,32.8125 C25.5740625,32.8125 27.3669375,32.529 28.875,31.962 L28.875,28.8474375 C27.2881875,29.4958125 25.83,29.8186875 24.499125,29.8186875 C22.6366875,29.8186875 21.202125,29.463 20.1980625,28.749 C19.1926875,28.0336875 18.3395625,26.7658125 17.64,24.94275 L24.14475,24.94275 L25.19475,22.3138125 L17.07825,22.3138125 C17.038875,21.8176875 17.0191875,21.2559375 17.0191875,20.62725 C17.0191875,20.08125 17.044125,19.6455 17.0926875,19.3213125 L26.4061875,19.3213125 L27.470625,16.692375 L17.72925,16.692375 C18.6650625,13.684125 20.769,12.18 24.0410625,12.18 C25.7064764,12.171813 27.3544714,12.519042 28.875,13.1985 L28.875,9.88575 C27.2114068,9.41350912 25.4894855,9.17844057 23.7601875,9.1875 C18.3001875,9.1875 14.791875,11.689125 13.2339375,16.692375 L11.56575,16.692375 L10.5,19.3213125 L12.718125,19.3213125 C12.6667656,19.8666625 12.641799,20.4141765 12.6433125,20.9619375 C12.6433125,21.3976875 12.65775,21.847875 12.6879375,22.3138125 L11.563125,22.3138125 L10.5,24.94275 Z" id="Shape" fill-rule="nonzero"></path>
                        </g>
                    </g>
                    <g id="token/eth/blue" transform="translate(555.000000, 498.000000) rotate(180.000000) translate(-555.000000, -498.000000) translate(534.000000, 477.000000)">
                        <circle id="Oval" fill="#FFFFFF" cx="21.5" cy="20.5" r="19.5"></circle>
                        <g id="eth" stroke-width="1" fill="#07233B">
                            <path d="M21,42 C9.4014375,42 0,32.5985625 0,21 C0,9.4014375 9.4014375,0 21,0 C32.5985625,0 42,9.4014375 42,21 C42,32.5985625 32.5985625,42 21,42 Z M31.492125,21.2874375 L21.653625,5.25 L11.8125,21.28875 L21.653625,27.0020625 L31.492125,21.2874375 Z M31.5,23.121 L21.653625,28.8316875 L11.8125,23.1223125 L21.653625,36.7434375 L31.5,23.121 Z" id="Shape" fill-rule="nonzero"></path>
                            <g id="Group" transform="translate(11.812500, 5.250000)" fill-rule="nonzero">
                                <path d="M9.841125,0 L9.841125,11.641875 L19.6809375,16.03875 L9.841125,0 Z M9.841125,23.583 L9.841125,31.4934375 L19.6875,17.871 L9.841125,23.583 Z" id="Shape" fill-opacity="0.3"></path>
                                <polygon id="Path" fill-opacity="0.8" points="9.841125 21.7520625 19.6809375 16.03875 9.841125 11.6445"></polygon>
                                <polygon id="Path" fill-opacity="0.3" points="0 16.03875 9.841125 21.7520625 9.841125 11.6445"></polygon>
                            </g>
                        </g>
                    </g>
                    <g id="token/ltc/blue" transform="translate(448.000000, 488.000000) rotate(-168.000000) translate(-448.000000, -488.000000) translate(427.000000, 467.000000)">
                        <circle id="Oval" fill="#FFFFFF" cx="21.5" cy="20.5" r="19.5"></circle>
                        <g id="ltc" stroke-width="1" fill="#07233B">
                            <path d="M21,42 C9.4014375,42 0,32.5985625 0,21 C0,9.4014375 9.4014375,0 21,0 C32.5985625,0 42,9.4014375 42,21 C42,32.5985625 32.5985625,42 21,42 Z M13.6854375,25.218375 L12.14325,31.5 L29.0416875,31.5 L30.1875,26.8130625 L20.052375,26.8130625 L21.165375,22.241625 L23.0383125,21.4921875 L23.9308125,17.8828125 L22.0801875,18.63225 L24.073875,10.5 L17.3420625,10.5 L14.61075,21.5630625 L12.7155,22.3243125 L11.8125,25.9455 L13.6854375,25.218375 L13.6854375,25.218375 Z" id="Shape" fill-rule="nonzero"></path>
                        </g>
                    </g>
                    <g id="token/eos/blue" transform="translate(24.000000, 24.000000) rotate(-96.000000) translate(-24.000000, -24.000000) translate(3.000000, 3.000000)">
                        <circle id="Oval" fill="#FFFFFF" cx="21.5" cy="20.5" r="19.5"></circle>
                        <g id="eos" stroke-width="1" fill="#07233B">
                            <path d="M21,42 C9.4014375,42 0,32.5985625 0,21 C0,9.4014375 9.4014375,0 21,0 C32.5985625,0 42,9.4014375 42,21 C42,32.5985625 32.5985625,42 21,42 Z M13.87575,15.1554375 L10.633875,29.9656875 C10.5849929,30.1523184 10.6687031,30.3483623 10.8373125,30.442125 L20.776875,36.6699375 C20.850375,36.715875 20.929125,36.7355824 21.0039375,36.7355824 C21.0848233,36.7363526 21.1641853,36.7135474 21.2323125,36.6699375 L31.171875,30.442125 C31.3399815,30.3479582 31.423112,30.1520076 31.374,29.9656875 L28.132125,15.1554375 C28.119797,15.0935955 28.0937865,15.0352961 28.056,14.9848125 L21.349125,5.8209375 C21.2703909,5.70896132 21.140771,5.64390495 21.0039375,5.64753116 C20.867564,5.64434871 20.7385367,5.70935485 20.6600625,5.8209375 L13.9531875,14.986125 C13.9149333,15.0364893 13.8884705,15.0947973 13.87575,15.15675 L13.87575,15.1554375 Z M12.0448125,27.449625 L14.364,16.85775 L15.689625,21.0196875 L12.0448125,27.449625 Z M11.7613125,29.654625 L16.036125,22.110375 L18.438,29.6533125 L11.76,29.6533125 L11.7613125,29.654625 Z M12.502875,30.494625 L18.70575,30.494625 L20.251875,35.3495625 L12.502875,30.4933125 L12.502875,30.494625 Z M16.2526875,20.0235 L14.7525,15.31425 L20.58,7.3539375 L20.58,12.3886875 L16.2526875,20.0235 Z M21.0039375,34.9453125 L19.5864375,30.4933125 L22.4214375,30.4933125 L21.0039375,34.9453125 Z M21.7573125,35.3495625 L23.3034375,30.4933125 L29.5063125,30.4933125 L21.7573125,35.3495625 Z M27.6451875,16.85775 L29.9630625,27.449625 L26.3195625,21.0196875 L27.6451875,16.8590625 L27.6451875,16.85775 Z M25.7551875,20.0235 L21.4291875,12.39 L21.4291875,7.3539375 L27.2566875,15.31425 L25.7551875,20.0235 L25.7551875,20.0235 Z M30.2465625,29.6533125 L23.5725,29.6533125 L25.974375,22.110375 L30.247875,29.6533125 L30.2465625,29.6533125 Z M21.0039375,13.342875 L25.4086875,21.1141875 L22.6891875,29.6533125 L19.32,29.6533125 L16.6005,21.1141875 L21.0039375,13.342875 Z" id="Shape" fill-rule="nonzero"></path>
                        </g>
                    </g>
                    <g id="token/bnb/blue" transform="translate(94.000000, 235.000000) rotate(-121.000000) translate(-94.000000, -235.000000) translate(73.000000, 214.000000)">
                        <circle id="Oval" fill="#FFFFFF" cx="21.5" cy="20.5" r="19.5"></circle>
                        <g id="bnb" stroke-width="1" fill="#07233B">
                            <path d="M21,42 C9.4014375,42 0,32.5985625 0,21 C0,9.4014375 9.4014375,0 21,0 C32.5985625,0 42,9.4014375 42,21 C42,32.5985625 32.5985625,42 21,42 Z M15.90225,18.90525 L21,13.8075 L26.100375,18.907875 L29.066625,15.941625 L21,7.875 L12.936,15.939 L15.90225,18.90525 Z M7.875,21 L10.84125,23.96625 L13.8075,21 L10.84125,18.03375 L7.875,21 Z M15.90225,23.09475 L12.9320625,26.0570625 L12.936,26.061 L21,34.125 L29.066625,26.058375 L29.066625,26.0570625 L26.100375,23.0908125 L21,28.1925 L15.90225,23.09475 Z M28.1925,21 L31.15875,23.96625 L34.125,21 L31.15875,18.03375 L28.1925,21 Z M24.00825,20.997375 L24.0095625,20.997375 L21,17.989125 L18.7753125,20.2125 L18.519375,20.4684375 L17.9930625,20.9960625 L17.9878125,21 L17.9930625,21.0039375 L20.9986875,24.010875 L24.0095625,21.0013125 L24.010875,21 L24.00825,20.9986875 L24.00825,20.997375 Z" id="Shape" fill-rule="nonzero"></path>
                        </g>
                    </g>
                    <g id="token/usdt/blue" transform="translate(161.000000, 325.000000) rotate(-132.000000) translate(-161.000000, -325.000000) translate(140.000000, 304.000000)">
                        <circle id="Oval" fill="#FFFFFF" cx="21.5" cy="20.5" r="19.5"></circle>
                        <g id="usdt" stroke-width="1" fill="#07233B">
                            <path d="M21,42 C9.4014375,42 0,32.5985625 0,21 C0,9.4014375 9.4014375,0 21,0 C32.5985625,0 42,9.4014375 42,21 C42,32.5985625 32.5985625,42 21,42 Z M23.522625,18.1033125 L23.522625,14.9979375 L30.6285,14.9979375 L30.6285,10.2624375 L11.2809375,10.2624375 L11.2809375,14.9979375 L18.3868125,14.9979375 L18.3868125,18.102 C12.6118125,18.367125 8.26875,19.511625 8.26875,20.881875 C8.26875,22.252125 12.6118125,23.3953125 18.3868125,23.66175 L18.3868125,33.613125 L23.522625,33.613125 L23.522625,23.659125 C29.2884375,23.394 33.621,22.2508125 33.621,20.881875 C33.621,19.5129375 29.2884375,18.36975 23.522625,18.1033125 Z M23.522625,22.8151875 L23.522625,22.8125625 C23.37825,22.8230625 22.6340625,22.8676875 20.97375,22.8676875 C19.648125,22.8676875 18.7149375,22.8283125 18.3868125,22.8125625 L18.3868125,22.8165 C13.2838125,22.5920625 9.4749375,21.7035 9.4749375,20.640375 C9.4749375,19.5785625 13.2838125,18.69 18.3868125,18.461625 L18.3868125,21.931875 C18.7201875,21.9555 19.6756875,22.0119375 20.9960625,22.0119375 C22.58025,22.0119375 23.3743125,21.9463125 23.522625,21.9331875 L23.522625,18.46425 C28.615125,18.6913125 32.4148125,19.579875 32.4148125,20.640375 C32.4148125,21.7035 28.615125,22.5894375 23.522625,22.8151875 L23.522625,22.8151875 Z" id="Shape" fill-rule="nonzero"></path>
                        </g>
                    </g>
                    <g id="token/trx/blue" transform="translate(245.000000, 399.000000) rotate(-144.000000) translate(-245.000000, -399.000000) translate(224.000000, 378.000000)">
                        <circle id="Oval" fill="#FFFFFF" cx="21.5" cy="20.5" r="19.5"></circle>
                        <g id="trx" stroke-width="1" fill="#07233B">
                            <path d="M21,42 C9.4014375,42 0,32.5985625 0,21 C0,9.4014375 9.4014375,0 21,0 C32.5985625,0 42,9.4014375 42,21 C42,32.5985625 32.5985625,42 21,42 Z M32.4778125,16.099125 C31.429125,15.3549375 30.3069375,14.560875 29.2096875,13.773375 C29.18475,13.755 29.161125,13.736625 29.1309375,13.71825 C29.0023607,13.6126651 28.8567927,13.5296737 28.7004375,13.4728125 L28.6873125,13.46625 C25.7513447,12.7457938 22.8161555,12.0221684 19.88175,11.295375 L12.02775,9.3568125 L11.8216875,9.3016875 C11.5854375,9.23475 11.3124375,9.1599375 11.0210625,9.1966875 C10.9412518,9.20891393 10.8650903,9.23848253 10.7979375,9.2833125 L10.7244375,9.345 C10.6324015,9.43937142 10.5620769,9.55269719 10.518375,9.6770625 L10.5,9.7269375 L10.5,10.009125 L10.513125,10.0524375 C12.166875,14.75775 13.86525,19.5313125 15.50325,24.15 C16.7645625,27.706875 18.07575,31.38975 19.354125,35.007 C19.432875,35.2524375 19.6573125,35.413875 19.936875,35.4377248 L19.99725,35.4377248 C20.2460597,35.4438796 20.4785417,35.314052 20.603625,35.098875 L25.407375,27.9943125 C26.5768125,26.26575 27.7475625,24.5319375 28.9183125,22.803375 L30.3555,20.6745 C31.143,19.506375 31.95675,18.3001875 32.7639375,17.1255 L32.8059375,17.065125 L32.8059375,16.9903125 C32.8243125,16.7750625 32.8295625,16.33275 32.4778125,16.0978125 L32.4778125,16.099125 Z M26.8498125,18.6886875 C25.7210625,19.2845625 24.57,19.900125 23.4110625,20.509125 L25.4375625,18.30675 C26.2801875,17.3840625 27.1595625,16.429875 28.0205625,15.495375 L28.0389375,15.477 C28.111125,15.3785625 28.203,15.2866875 28.300125,15.18825 C28.36575,15.1213125 28.43925,15.0530625 28.5061875,14.973 C28.9550625,15.288 29.4091875,15.6069375 29.84625,15.920625 C30.16125,16.1476875 30.4828125,16.3760625 30.8109375,16.603125 C29.4859676,17.2895502 28.1655636,17.984753 26.8498125,18.6886875 L26.8498125,18.6886875 Z M23.9518125,18.393375 C23.08425,19.34625 22.1865,20.3240625 21.2953125,21.2900625 C19.5657166,19.1618469 17.8310241,17.0377783 16.09125,14.917875 L13.7563125,12.06975 L13.7510625,12.0631875 C13.5751875,11.8610625 13.4045625,11.63925 13.23525,11.4305625 C13.1263125,11.2888125 13.0108125,11.153625 12.8953125,11.011875 C13.5988125,11.195625 14.308875,11.368875 15.0058125,11.53425 C15.61875,11.6825625 16.2553125,11.836125 16.8800625,11.99625 L27.439125,14.597625 C26.268375,15.8655 25.0910625,17.1504375 23.9518125,18.393375 L23.9518125,18.393375 Z M20.90025,30.38175 C20.9671875,29.736 21.0406875,29.071875 21.1010625,28.4195625 C21.1561875,27.895875 21.21,27.3616875 21.265125,26.851125 C21.349125,26.032125 21.441,25.18425 21.5145,24.3534375 L21.5315625,24.2064375 C21.5919375,23.6761875 21.6523125,23.1301875 21.6890625,22.5815625 C21.7596917,22.5416946 21.832919,22.5066156 21.90825,22.4765625 C21.9988125,22.4345625 22.089375,22.3978125 22.1799375,22.3426875 C23.5807949,21.5960903 24.9838636,20.8536495 26.389125,20.115375 C27.790875,19.37775 29.2280625,18.613875 30.6534375,17.857875 C29.3600971,19.7573802 28.072092,21.6605127 26.7894375,23.56725 C25.704,25.171125 24.588375,26.8261875 23.478,28.4563125 C23.04225,29.108625 22.5868125,29.77275 22.1563125,30.4119375 C21.6706875,31.1259375 21.17325,31.857 20.6889375,32.5906875 C20.7493125,31.85175 20.8215,31.1075625 20.90025,30.38175 L20.90025,30.38175 Z M12.44775,12.4635 C12.369,12.2416875 12.282375,12.014625 12.2101875,11.799375 C13.8481875,13.804875 15.4966875,15.8221875 17.1045,17.7778125 C17.9353125,18.792375 18.766125,19.8016875 19.5969375,20.8228125 C19.761,21.013125 19.9250625,21.2165625 20.0825625,21.4134375 C20.288625,21.6654375 20.4946875,21.9305625 20.719125,22.1825625 C20.645625,22.8151875 20.58525,23.4556875 20.5183125,24.0699375 C20.4763125,24.5004375 20.4343125,24.93225 20.38575,25.3693125 L20.38575,25.3745625 C20.367375,25.6501875 20.330625,25.9284375 20.3004375,26.1988125 L20.1613125,27.423375 L20.15475,27.465375 C20.0458125,28.7083125 19.9119375,29.9630625 19.784625,31.1810625 C19.7308125,31.6850625 19.68225,32.2021875 19.627125,32.7193125 C19.5969375,32.6274375 19.5615,32.53425 19.53,32.447625 C19.4375363,32.1969267 19.3487145,31.9449002 19.2635625,31.691625 L18.613875,29.864625 L12.4464375,12.4635 L12.44775,12.4635 Z" id="Shape" fill-rule="nonzero"></path>
                        </g>
                    </g>
                </g>
                <g id="Tokens-Top" transform="translate(817.500000, 900.000000) scale(-1, -1) translate(-817.500000, -900.000000) translate(540.000000, 690.000000)">
                    <g id="token/beam/blue" transform="translate(513.000000, 0.000000)">
                        <circle id="Oval" fill="#FFFFFF" cx="21.5" cy="20.5" r="19.5"></circle>
                        <g id="token/beam" stroke-width="1" fill="#07233B">
                            <path d="M21,42 C9.4014375,42 0,32.5985625 0,21 C0,9.4014375 9.4014375,0 21,0 C32.5985625,0 42,9.4014375 42,21 C42,32.5985625 32.5985625,42 21,42 Z M35.6475,16.61625 L35.6475,13.72875 L26.25,19.201875 L20.44875,9.200625 L20.44875,15.763125 L23.401875,20.881875 L22.2075,21.590625 L20.44875,18.493125 L18.55875,21.853125 L17.24625,21.315 L20.44875,15.763125 L20.44875,9.200625 L14.09625,20.015625 L5.25,16.35375 L5.25,19.700625 L13.125,21.643125 L8.1375,30.200625 L20.44875,30.200625 L20.44875,26.67 L14.161875,26.67 L16.51125,22.54875 L17.92875,22.903125 L16.51125,25.396875 L24.38625,25.396875 L23.205,23.31 L24.766875,23.191875 L26.775,26.67 L20.44875,26.67 L20.44875,30.200625 L32.8125,30.200625 L28.56,22.9425 L35.7,22.4175 L35.7,19.516875 L27.6675,21.49875 L35.686875,19.438125 L35.686875,16.813125 L26.985,20.34375 L35.6475,16.61625 L35.6475,16.61625 Z M24.22875,22.325625 L22.81125,22.68 L24.2025,22.325625 L24.22875,22.325625 Z M23.7825,21.538125 L22.47,22.063125 L23.7825,21.525 L23.7825,21.538125 Z" id="Shape" fill-rule="nonzero"></path>
                        </g>
                    </g>
                    <g id="token/sgd/blue" transform="translate(423.000000, 33.000000) rotate(-12.000000) translate(-423.000000, -33.000000) translate(402.000000, 12.000000)">
                        <circle id="Oval" fill="#FFFFFF" cx="21.5" cy="20.5" r="19.5"></circle>
                        <g id="eur" stroke-width="1" fill="#07233B">
                            <path d="M21,42 C9.4014375,42 0,32.5985625 0,21 C0,9.4014375 9.4014375,0 21,0 C32.5985625,0 42,9.4014375 42,21 C42,32.5985625 32.5985625,42 21,42 Z" id="Shape" fill-rule="nonzero"></path>
                        </g>
                        <g id="Singapore-Flag" stroke-width="1" transform="translate(7.000000, 9.000000)" fill="#FFFFFF">
                            <path d="M16.5549274,0.736558253 C10.2078022,0.829723894 5.09090909,6.06071403 5.09090909,12.5 C5.09090909,18.939286 10.2078022,24.1702761 16.5549274,24.2634417 C15.2461461,24.740178 13.8349025,25 12.3636364,25 C5.53538855,25 4.47641924e-13,19.4035594 4.47641924e-13,12.5 C4.47641924e-13,5.59644063 5.53538855,0 12.3636364,0 C13.8349025,0 15.2461461,0.259821963 16.5549274,0.736558253 Z" id="Combined-Shape"></path>
                            <polygon id="Star" points="18.7272727 6.76915786 17.0519465 8.06726488 17.698118 5.96765483 16.0139552 4.67598859 18.0876243 4.67598859 18.7272727 2.57525235 19.3759988 4.67598859 21.4545455 4.67598859 19.7623172 5.96765483 20.4091693 8.06726488"></polygon>
                            <polygon id="Star-Copy" points="25.2587721 11.5468467 23.5834459 12.8449537 24.2296173 10.7453437 22.5454545 9.45367741 24.6191236 9.45367741 25.2587721 7.35294118 25.9074981 9.45367741 27.9860448 9.45367741 26.2938166 10.7453437 26.9406686 12.8449537"></polygon>
                            <polygon id="Star-Copy-2" points="12.167863 11.5468467 10.4925368 12.8449537 11.1387083 10.7453437 9.45454545 9.45367741 11.5282146 9.45367741 12.167863 7.35294118 12.816589 9.45367741 14.8951357 9.45367741 13.2029075 10.7453437 13.8497595 12.8449537"></polygon>
                            <polygon id="Star-Copy-3" points="14.7133175 19.2674349 13.0379913 20.5655419 13.6841628 18.4659319 12 17.1742656 14.0736691 17.1742656 14.7133175 15.0735294 15.3620436 17.1742656 17.4405903 17.1742656 15.748362 18.4659319 16.3952141 20.5655419"></polygon>
                            <polygon id="Star-Copy-4" points="22.7133175 19.2674349 21.0379913 20.5655419 21.6841628 18.4659319 20 17.1742656 22.0736691 17.1742656 22.7133175 15.0735294 23.3620436 17.1742656 25.4405903 17.1742656 23.748362 18.4659319 24.3952141 20.5655419"></polygon>
                        </g>
                    </g>
                    <g id="token/usd/blue" transform="translate(137.000000, 200.000000) rotate(-48.000000) translate(-137.000000, -200.000000) translate(116.000000, 179.000000)">
                        <circle id="Oval" fill="#FFFFFF" cx="21.5" cy="20.5" r="19.5"></circle>
                        <g id="usd" stroke-width="1" fill="#07233B">
                            <path d="M21,42 C9.4014375,42 0,32.5985625 0,21 C0,9.4014375 9.4014375,0 21,0 C32.5985625,0 42,9.4014375 42,21 C42,32.5985625 32.5985625,42 21,42 Z M29.53125,25.139625 C29.53125,21.8281875 27.46275,19.957875 22.6235625,18.792375 L22.6235625,12.964875 C24.1198125,13.272 25.55175,13.9164375 26.9521875,14.928375 L28.735875,12.046125 C26.9789608,10.7592667 24.9153496,9.95554448 22.750875,9.715125 L22.750875,7.875 L19.9815,7.875 L19.9815,9.6534375 C16.002,9.9605625 13.2969375,12.229875 13.2969375,15.5413125 C13.2969375,19.0063125 15.46125,20.692875 20.1088125,21.858375 L20.1088125,27.869625 C18.039,27.5625 16.3209375,26.6424375 14.50575,25.2315 L12.46875,28.021875 C14.6491785,29.7004155 17.2471439,30.7506762 19.9815,31.059 L19.9815,34.125 L22.750875,34.125 L22.750875,31.0891875 C26.793375,30.751875 29.53125,28.51275 29.53125,25.139625 Z M20.1075,18.1479375 C17.6570625,17.443125 17.0533125,16.6149375 17.0533125,15.3260625 C17.0533125,13.978125 18.1033125,12.9045 20.1088125,12.7509375 L20.1075,18.1479375 Z M25.774875,25.3535625 C25.774875,26.8261875 24.6290625,27.838125 22.6235625,27.9916875 L22.6235625,22.441125 C25.1068125,23.14725 25.774875,23.974125 25.774875,25.354875 L25.774875,25.3535625 Z" id="Shape" fill-rule="nonzero"></path>
                        </g>
                    </g>
                    <g id="token/btc/blue" transform="translate(317.000000, 68.000000) rotate(-24.000000) translate(-317.000000, -68.000000) translate(296.000000, 47.000000)">
                        <circle id="Oval" fill="#FFFFFF" cx="21.5" cy="20.5" r="19.5"></circle>
                        <g id="btc" stroke-width="1" fill="#07233B">
                            <path d="M21,42 C9.4014375,42 0,32.5985625 0,21 C0,9.4014375 9.4014375,0 21,0 C32.5985625,0 42,9.4014375 42,21 C42,32.5985625 32.5985625,42 21,42 Z M30.4355625,18.40125 C30.8476875,15.65025 28.751625,14.1710625 25.88775,13.1840625 L26.817,9.4565625 L24.549,8.8921875 L23.643375,12.52125 C23.0475,12.371625 22.435875,12.2325 21.8255625,12.093375 L22.73775,8.4406875 L20.46975,7.875 L19.5405,11.6011875 C19.047,11.4883125 18.561375,11.3780625 18.0915,11.2599375 L18.094125,11.248125 L14.965125,10.4671875 L14.361375,12.8900625 C14.361375,12.8900625 16.0453125,13.2759375 16.009875,13.2995625 C16.928625,13.52925 17.094,14.1369375 17.0664375,14.6199375 L16.0085625,18.865875 C16.0715625,18.881625 16.1529375,18.90525 16.2448125,18.9406875 L16.004625,18.881625 L14.5215,24.829875 C14.408625,25.108125 14.1238125,25.5268125 13.4806875,25.368 C13.5043125,25.4008125 11.8321875,24.9571875 11.8321875,24.9571875 L10.7060625,27.5533125 L13.6591875,28.289625 C14.2078125,28.4274375 14.7459375,28.5718125 15.274875,28.707 L14.3364375,32.4765 L16.603125,33.040875 L17.532375,29.313375 C18.151875,29.4800625 18.753,29.6349375 19.341,29.7819375 L18.414375,33.4936875 L20.682375,34.0580625 L21.6208125,30.2964375 C25.4900625,31.0288125 28.3985625,30.7335 29.623125,27.234375 C30.610125,24.41775 29.5745625,22.7915625 27.538875,21.732375 C29.022,21.391125 30.137625,20.4159375 30.4355625,18.40125 L30.4355625,18.40125 Z M25.2511875,25.669875 C24.551625,28.4878125 19.8069375,26.964 18.2686875,26.5820625 L19.5155625,21.588 C21.0538125,21.9725625 25.984875,22.7325 25.2511875,25.669875 Z M25.953375,18.3605625 C25.3141875,20.923875 21.3661875,19.6205625 20.0865,19.301625 L21.21525,14.7735 C22.4949375,15.0924375 26.620125,15.687 25.953375,18.3605625 Z" id="Shape" fill-rule="nonzero"></path>
                        </g>
                    </g>
                    <g id="token/xrp/blue" transform="translate(72.000000, 291.000000) rotate(-59.000000) translate(-72.000000, -291.000000) translate(51.000000, 270.000000)">
                        <circle id="Oval" fill="#FFFFFF" cx="21.5" cy="20.5" r="19.5"></circle>
                        <g id="xrp" stroke-width="1" fill="#07233B">
                            <path d="M21,42 C9.4014375,42 0,32.5985625 0,21 C0,9.4014375 9.4014375,0 21,0 C32.5985625,0 42,9.4014375 42,21 C42,32.5985625 32.5985625,42 21,42 Z M30.279375,10.5 L24.276,16.4364375 C22.4583808,18.2304741 19.5363692,18.2304741 17.71875,16.4364375 L11.720625,10.5 L7.9209375,10.5 L15.8221875,18.3185625 C18.6941789,21.1481814 23.3058211,21.1481814 26.1778125,18.3185625 L34.0738125,10.5 L30.2806875,10.5 L30.279375,10.5 Z M11.6746875,32.2389375 L17.724,26.25 C19.5416192,24.4559634 22.4636308,24.4559634 24.28125,26.25 L30.3253125,32.2389375 L34.125,32.2389375 L26.1778125,24.373125 C23.3058211,21.5435061 18.6941789,21.5435061 15.8221875,24.373125 L7.875,32.237625 L11.6746875,32.237625 L11.6746875,32.2389375 Z" id="Shape" fill-rule="nonzero"></path>
                        </g>
                    </g>
                    <g id="token/ada/blue" transform="translate(27.000000, 393.000000) rotate(-72.000000) translate(-27.000000, -393.000000) translate(6.000000, 372.000000)">
                        <circle id="Oval" fill="#FFFFFF" cx="21.5" cy="20.5" r="19.5"></circle>
                        <g id="ada" stroke-width="1" fill="#07233B">
                            <path d="M21,42 C9.4014375,42 0,32.5985625 0,21 C0,9.4014375 9.4014375,0 21,0 C32.5985625,0 42,9.4014375 42,21 C42,32.5985625 32.5985625,42 21,42 Z M20.6390625,7.95375 C20.1271875,8.15325 19.9959375,8.8816875 20.3949375,9.2505 C20.771625,9.6350625 21.506625,9.499875 21.700875,8.9971875 C22.0355625,8.379 21.26775,7.6295625 20.63775,7.9524375 L20.6390625,7.95375 Z M13.873125,8.670375 C13.3415625,8.8095 13.2825,9.63375 13.7983125,9.830625 C14.188125,10.040625 14.7406875,9.7138125 14.7,9.2701875 C14.739375,8.859375 14.2550625,8.5155 13.873125,8.670375 L13.873125,8.670375 Z M27.7305,9.8424375 C28.137375,9.9448125 28.43925,9.6193125 28.53375,9.2649375 C28.468125,8.848875 28.058625,8.4485625 27.6136875,8.6611875 C27.0388125,8.8475625 27.1333125,9.7715625 27.7305,9.8424375 L27.7305,9.8424375 Z M15.4126875,11.50275 C14.8141875,11.804625 14.7315,12.702375 15.274875,13.0935 C15.836625,13.59225 16.8315,13.164375 16.8643125,12.4280625 C16.96275,11.697 16.0505625,11.1050625 15.4126875,11.50275 Z M25.1645625,11.925375 C24.808875,12.628875 25.5268125,13.43475 26.284125,13.295625 C26.8550625,13.10925 27.250125,12.4306875 26.9285625,11.883375 C26.604375,11.179875 25.449375,11.2021875 25.1645625,11.925375 Z M19.824,13.2549375 C19.789875,13.7615625 20.1586875,14.1763125 20.59575,14.387625 C20.881875,14.4046875 21.1929375,14.4585 21.4554375,14.314125 C22.0303125,14.06475 22.3138125,13.314 21.994875,12.768 C21.82425,12.37425 21.391125,12.20625 20.9934375,12.1275 C20.3923125,12.1708125 19.8174375,12.6328125 19.824,13.2549375 Z M9.762375,14.1605625 C9.253125,14.39025 9.18225,15.1659375 9.631125,15.4888125 C10.05375,15.8326875 10.791375,15.6135 10.912125,15.0740625 C11.1339375,14.450625 10.3464375,13.8061875 9.762375,14.15925 L9.762375,14.1605625 Z M31.36875,14.1579375 C30.8595,14.4650625 30.9159375,15.2840625 31.4566875,15.5229375 C31.9475625,15.8116875 32.655,15.3890625 32.620875,14.828625 C32.6799375,14.214375 31.8635625,13.7799375 31.36875,14.15925 L31.36875,14.1579375 Z M22.65375,15.274875 C21.63525,15.579375 21.0315,16.79475 21.44625,17.766 C21.811125,18.8514375 23.2535625,19.3554375 24.241875,18.760875 C25.1934375,18.2581875 25.52025,16.923375 24.906,16.0479375 C24.441375,15.3313125 23.470125,14.9848125 22.65375,15.274875 L22.65375,15.274875 Z M17.8591875,15.3706875 C16.8945,15.794625 16.450875,17.0454375 16.9509375,17.9668125 C17.3971875,18.918375 18.6965625,19.3095 19.6179375,18.7936875 C20.538,18.335625 20.9356875,17.1005625 20.4211875,16.2133125 C19.984125,15.3024375 18.7648125,14.949375 17.8591875,15.3706875 L17.8591875,15.3706875 Z M13.059375,16.98375 C12.9268125,17.658375 13.5384375,18.3435 14.238,18.283125 C14.87325,18.2870625 15.3365625,17.710875 15.3759375,17.1215625 C15.3049294,16.5258554 14.8307711,16.0587822 14.2340625,15.99675 C13.678875,16.036125 13.1289375,16.4101875 13.059375,16.98375 L13.059375,16.98375 Z M27.237,16.12275 C26.4665625,16.47975 26.410125,17.661 27.1516875,18.081 C27.8656875,18.585 28.9681875,17.9799375 28.919625,17.12025 C28.951125,16.309125 27.9549375,15.7119375 27.237,16.12275 L27.237,16.12275 Z M15.910125,19.1506875 C14.770875,19.4210625 14.104125,20.7991875 14.65275,21.826875 C15.1318125,22.94775 16.786875,23.2785 17.684625,22.456875 C18.3855,21.8964375 18.56925,20.834625 18.1190625,20.07075 C17.7069375,19.312125 16.7475,18.923625 15.9088125,19.1506875 L15.910125,19.1506875 Z M25.0018125,19.14675 C23.8546875,19.4551875 23.2483125,20.8858125 23.85075,21.89775 C24.3495,22.876875 25.7499375,23.205 26.65425,22.58025 C27.5165625,22.0408125 27.7935,20.792625 27.213375,19.9565625 C26.775,19.2255 25.816875,18.9170625 25.0018125,19.14675 L25.0018125,19.14675 Z M10.5118125,20.099625 C9.8161875,20.293875 9.610125,21.286125 10.1679375,21.7310625 C10.644375,22.2061875 11.5670625,21.9673125 11.746875,21.3241875 C12.0395625,20.61675 11.2363125,19.8305625 10.5118125,20.099625 L10.5118125,20.099625 Z M30.158625,21.126 C30.279375,21.401625 30.4250625,21.690375 30.709875,21.832125 C31.318875,22.1615625 32.1785625,21.685125 32.132625,20.9829375 C32.172,20.4500625 31.689,20.0563125 31.192875,19.978875 C30.5918086,20.0127744 30.1303052,20.5246449 30.158625,21.126 Z M6.948375,20.44875 C6.5874375,20.6101875 6.43125,21.091875 6.69375,21.4055625 C6.990375,21.85575 7.8001875,21.648375 7.8225,21.1089375 C7.9235625,20.6325 7.384125,20.2610625 6.948375,20.44875 L6.948375,20.44875 Z M34.4439375,20.4369375 C33.9320625,20.706 34.132875,21.6339375 34.752375,21.5788125 C35.193375,21.6444375 35.571375,21.1155 35.3653125,20.729625 C35.24325,20.3765625 34.7510625,20.223 34.4439375,20.4369375 L34.4439375,20.4369375 Z M18.277875,23.0265 C17.4195,23.21025 16.758,24.0121875 16.760625,24.8758125 C16.7304375,25.7775 17.443125,26.6385 18.351375,26.782875 C19.5260625,27.05325 20.740125,26.0124375 20.6653125,24.83775 C20.65875,23.674875 19.425,22.7338125 18.2765625,23.0265 L18.277875,23.0265 Z M22.82175,23.0251875 C22.131375,23.1931875 21.546,23.753625 21.39375,24.4426875 C21.091875,25.475625 21.889875,26.6450625 22.9726875,26.782875 C24.1224375,27.01125 25.29975,26.0045625 25.2380625,24.8521875 C25.2564375,23.6630625 23.9859375,22.7049375 22.8230625,23.0251875 L22.82175,23.0251875 Z M14.0595,23.7405 C13.1893125,23.827125 12.7299375,24.9781875 13.3441875,25.606875 C13.8691875,26.263125 15.0556875,26.04525 15.2945625,25.242 C15.621375,24.4899375 14.865375,23.6053125 14.0608125,23.7405 L14.0595,23.7405 Z M27.386625,23.7759375 C26.5190625,24.047625 26.373375,25.3509375 27.1700625,25.7919375 C27.87225,26.2854375 28.961625,25.7026875 28.93275,24.85875 C28.987875,24.0909375 28.105875,23.480625 27.386625,23.7759375 L27.386625,23.7759375 Z M31.1115,27.4509375 C31.3018125,27.9733125 32.095875,28.098 32.4463125,27.6609375 C32.704875,27.426 32.6405625,27.061125 32.6025,26.7553125 C32.4174375,26.5663125 32.214,26.341875 31.9239375,26.347125 C31.3411875,26.2513125 30.830625,26.935125 31.1115,27.4509375 Z M9.75975,26.4901875 C9.2413125,26.7500625 9.2229375,27.5625 9.7243125,27.8473125 C10.1915625,28.1623125 10.9003125,27.846 10.964625,27.292125 C11.088,26.6660625 10.3044375,26.1345 9.75975,26.4915 L9.75975,26.4901875 Z M20.5130625,27.649125 C19.6546875,27.9208125 19.5260625,29.2149375 20.299125,29.654625 C20.9960625,30.1665 22.1195625,29.575875 22.06575,28.72275 C22.134,27.951 21.22575,27.3406875 20.5130625,27.649125 L20.5130625,27.649125 Z M15.5334375,28.7923125 C15.1055625,28.9498125 14.931,29.4144375 14.923125,29.8305 C15.070125,30.2124375 15.36675,30.615375 15.8221875,30.6245625 C16.3734375,30.7059375 16.9168125,30.2386875 16.8984375,29.6900625 C16.9535625,29.0206875 16.1398125,28.478625 15.5334375,28.7923125 L15.5334375,28.7923125 Z M25.6213125,28.8028125 C25.0123125,29.108625 24.9440625,30.032625 25.5058125,30.4171875 C26.08725,30.9080625 27.09,30.4303125 27.07425,29.6821875 C27.1333125,28.9681875 26.2460625,28.4221875 25.6213125,28.8028125 Z M27.376125,33.0684375 C27.6609375,33.5488125 28.49175,33.3781875 28.5455625,32.8190625 C28.6216875,32.4043125 28.2384375,32.1365625 27.8761875,32.064375 C27.4246875,32.158875 27.097875,32.6563125 27.376125,33.06975 L27.376125,33.0684375 Z M13.4491875,32.710125 C13.4885625,33.1813125 14.0109375,33.5895 14.4598125,33.2915625 C14.959875,33.0290625 14.7905625,32.1825 14.219625,32.143125 C13.8271875,32.0578125 13.5594375,32.3833125 13.4491875,32.710125 Z M20.1691875,33.0868125 C19.968375,33.576375 20.44875,34.1683125 20.9803125,34.106625 C21.2664375,34.1131875 21.48825,33.912375 21.6601875,33.712875 C21.693,33.5776875 21.727125,33.4411875 21.7651875,33.306 C21.6943125,33.046125 21.6129375,32.741625 21.3346875,32.6235 C20.9146875,32.36625 20.278125,32.6025 20.167875,33.0868125 L20.1691875,33.0868125 Z" id="Shape" fill-rule="nonzero"></path>
                        </g>
                    </g>
                    <g id="token/grin/blue" transform="translate(220.000000, 125.000000) rotate(-37.000000) translate(-220.000000, -125.000000) translate(199.000000, 104.000000)">
                        <circle id="Oval" fill="#FFFFFF" cx="21.5" cy="20.5" r="19.5"></circle>
                        <g id="grin" stroke-width="1" fill="#07233B">
                            <path d="M21,42 C9.4014375,42 0,32.5985625 0,21 C0,9.4014375 9.4014375,0 21,0 C32.5985625,0 42,9.4014375 42,21 C42,32.5985625 32.5985625,42 21,42 Z M29.715,12.558 C29.26875,11.5591875 28.8553125,9.5851875 27.7134375,9.1455 C26.2434375,8.581125 25.3365,12.27975 25.1199375,13.21425 L24.90075,13.21425 C24.530625,11.613 24.0345,9.342375 22.27575,8.838375 C21.462,12.2574375 23.12625,15.94425 24.682875,18.9039375 C26.3445,18.1085625 27.1543125,15.6226875 27.307875,13.8705 L27.5270625,13.8705 L29.2779375,19.1218125 C30.68625,18.7175625 31.1758125,17.3236875 31.68375,16.0584375 C32.77575,13.3441875 33.691875,10.0051875 32.99625,7.0875 C30.89625,7.683375 30.25575,10.6876875 29.715,12.558 Z M8.70975,19.5601875 C10.58925,18.6624375 11.484375,15.8195625 11.773125,13.8705 L11.991,13.8705 C12.214125,14.81025 12.8086875,17.233125 13.9820625,17.388 C15.4783125,17.5861875 16.261875,14.2681875 16.366875,13.21425 L16.5860625,13.21425 C17.0625,14.8614375 17.5651875,17.00475 19.2110625,17.8093125 C19.8200625,15.2578125 19.0929375,12.537 18.15975,10.150875 C17.9195625,9.5379375 17.427375,7.882875 16.5808125,7.882875 C15.1948125,7.882875 14.4151875,11.536875 14.1789375,12.558 L13.9610625,12.558 L12.2101875,7.3066875 C9.1310625,8.7766875 7.4589375,16.59525 8.70975,19.5601875 Z M5.4271875,22.1851875 C7.7109375,32.1523125 18.251625,37.8039375 27.74625,33.5934375 C31.1884993,32.0639194 33.9535138,29.3297104 35.5215,25.9048125 C35.9296875,25.0201875 36.731625,23.417625 36.264375,22.2560625 C35.7984375,21.0984375 31.2834375,22.9884375 30.1546875,23.48325 C29.9962604,23.5532913 29.884449,23.6992397 29.8580625,23.8704375 C29.8208023,24.1133647 29.886591,24.3608217 30.0395736,24.5531711 C30.1925561,24.7455205 30.418857,24.8653163 30.6639375,24.8836875 L32.5591875,25.0306875 C29.127,31.6745625 19.8463125,34.6119375 13.3048125,29.3041875 C11.8400625,28.116375 10.534125,26.7054375 9.65475,25.0306875 C9.2295,24.220875 8.8344375,23.1853125 8.1125625,22.6288125 C7.4169375,22.0959375 6.3643125,21.9121875 5.4271875,22.1851875 L5.4271875,22.1851875 Z" id="Shape" fill-rule="nonzero"></path>
                        </g>
                    </g>
                </g>
                <g id="token/grin/blue" transform="translate(1095.000000, 606.000000) scale(-1, -1) rotate(-91.000000) translate(-1095.000000, -606.000000) translate(1074.000000, 585.000000)">
                    <circle id="Oval" fill="#FFFFFF" cx="21.5" cy="20.5" r="19.5"></circle>
                    <g id="grin" stroke-width="1" fill="#07233B">
                        <path d="M21,42 C9.4014375,42 0,32.5985625 0,21 C0,9.4014375 9.4014375,0 21,0 C32.5985625,0 42,9.4014375 42,21 C42,32.5985625 32.5985625,42 21,42 Z M29.715,12.558 C29.26875,11.5591875 28.8553125,9.5851875 27.7134375,9.1455 C26.2434375,8.581125 25.3365,12.27975 25.1199375,13.21425 L24.90075,13.21425 C24.530625,11.613 24.0345,9.342375 22.27575,8.838375 C21.462,12.2574375 23.12625,15.94425 24.682875,18.9039375 C26.3445,18.1085625 27.1543125,15.6226875 27.307875,13.8705 L27.5270625,13.8705 L29.2779375,19.1218125 C30.68625,18.7175625 31.1758125,17.3236875 31.68375,16.0584375 C32.77575,13.3441875 33.691875,10.0051875 32.99625,7.0875 C30.89625,7.683375 30.25575,10.6876875 29.715,12.558 Z M8.70975,19.5601875 C10.58925,18.6624375 11.484375,15.8195625 11.773125,13.8705 L11.991,13.8705 C12.214125,14.81025 12.8086875,17.233125 13.9820625,17.388 C15.4783125,17.5861875 16.261875,14.2681875 16.366875,13.21425 L16.5860625,13.21425 C17.0625,14.8614375 17.5651875,17.00475 19.2110625,17.8093125 C19.8200625,15.2578125 19.0929375,12.537 18.15975,10.150875 C17.9195625,9.5379375 17.427375,7.882875 16.5808125,7.882875 C15.1948125,7.882875 14.4151875,11.536875 14.1789375,12.558 L13.9610625,12.558 L12.2101875,7.3066875 C9.1310625,8.7766875 7.4589375,16.59525 8.70975,19.5601875 Z M5.4271875,22.1851875 C7.7109375,32.1523125 18.251625,37.8039375 27.74625,33.5934375 C31.1884993,32.0639194 33.9535138,29.3297104 35.5215,25.9048125 C35.9296875,25.0201875 36.731625,23.417625 36.264375,22.2560625 C35.7984375,21.0984375 31.2834375,22.9884375 30.1546875,23.48325 C29.9962604,23.5532913 29.884449,23.6992397 29.8580625,23.8704375 C29.8208023,24.1133647 29.886591,24.3608217 30.0395736,24.5531711 C30.1925561,24.7455205 30.418857,24.8653163 30.6639375,24.8836875 L32.5591875,25.0306875 C29.127,31.6745625 19.8463125,34.6119375 13.3048125,29.3041875 C11.8400625,28.116375 10.534125,26.7054375 9.65475,25.0306875 C9.2295,24.220875 8.8344375,23.1853125 8.1125625,22.6288125 C7.4169375,22.0959375 6.3643125,21.9121875 5.4271875,22.1851875 L5.4271875,22.1851875 Z" id="Shape" fill-rule="nonzero"></path>
                    </g>
                </g>
                <g id="Tokens-Top" transform="translate(25.000000, 0.000000)">
                    <g id="token/beam/blue" transform="translate(513.000000, 0.000000)">
                        <circle id="Oval" fill="#FFFFFF" cx="21.5" cy="20.5" r="19.5"></circle>
                        <g id="token/beam" stroke-width="1" fill="#07233B">
                            <path d="M21,42 C9.4014375,42 0,32.5985625 0,21 C0,9.4014375 9.4014375,0 21,0 C32.5985625,0 42,9.4014375 42,21 C42,32.5985625 32.5985625,42 21,42 Z M35.6475,16.61625 L35.6475,13.72875 L26.25,19.201875 L20.44875,9.200625 L20.44875,15.763125 L23.401875,20.881875 L22.2075,21.590625 L20.44875,18.493125 L18.55875,21.853125 L17.24625,21.315 L20.44875,15.763125 L20.44875,9.200625 L14.09625,20.015625 L5.25,16.35375 L5.25,19.700625 L13.125,21.643125 L8.1375,30.200625 L20.44875,30.200625 L20.44875,26.67 L14.161875,26.67 L16.51125,22.54875 L17.92875,22.903125 L16.51125,25.396875 L24.38625,25.396875 L23.205,23.31 L24.766875,23.191875 L26.775,26.67 L20.44875,26.67 L20.44875,30.200625 L32.8125,30.200625 L28.56,22.9425 L35.7,22.4175 L35.7,19.516875 L27.6675,21.49875 L35.686875,19.438125 L35.686875,16.813125 L26.985,20.34375 L35.6475,16.61625 L35.6475,16.61625 Z M24.22875,22.325625 L22.81125,22.68 L24.2025,22.325625 L24.22875,22.325625 Z M23.7825,21.538125 L22.47,22.063125 L23.7825,21.525 L23.7825,21.538125 Z" id="Shape" fill-rule="nonzero"></path>
                        </g>
                    </g>
                    <g id="token/sgd/blue" transform="translate(423.000000, 33.000000) rotate(-12.000000) translate(-423.000000, -33.000000) translate(402.000000, 12.000000)">
                        <circle id="Oval" fill="#FFFFFF" cx="21.5" cy="20.5" r="19.5"></circle>
                        <g id="eur" stroke-width="1" fill="#07233B">
                            <path d="M21,42 C9.4014375,42 0,32.5985625 0,21 C0,9.4014375 9.4014375,0 21,0 C32.5985625,0 42,9.4014375 42,21 C42,32.5985625 32.5985625,42 21,42 Z" id="Shape" fill-rule="nonzero"></path>
                        </g>
                        <g id="Singapore-Flag" stroke-width="1" transform="translate(7.000000, 9.000000)" fill="#FFFFFF">
                            <path d="M16.5549274,0.736558253 C10.2078022,0.829723894 5.09090909,6.06071403 5.09090909,12.5 C5.09090909,18.939286 10.2078022,24.1702761 16.5549274,24.2634417 C15.2461461,24.740178 13.8349025,25 12.3636364,25 C5.53538855,25 4.47641924e-13,19.4035594 4.47641924e-13,12.5 C4.47641924e-13,5.59644063 5.53538855,0 12.3636364,0 C13.8349025,0 15.2461461,0.259821963 16.5549274,0.736558253 Z" id="Combined-Shape"></path>
                            <polygon id="Star" points="18.7272727 6.76915786 17.0519465 8.06726488 17.698118 5.96765483 16.0139552 4.67598859 18.0876243 4.67598859 18.7272727 2.57525235 19.3759988 4.67598859 21.4545455 4.67598859 19.7623172 5.96765483 20.4091693 8.06726488"></polygon>
                            <polygon id="Star-Copy" points="25.2587721 11.5468467 23.5834459 12.8449537 24.2296173 10.7453437 22.5454545 9.45367741 24.6191236 9.45367741 25.2587721 7.35294118 25.9074981 9.45367741 27.9860448 9.45367741 26.2938166 10.7453437 26.9406686 12.8449537"></polygon>
                            <polygon id="Star-Copy-2" points="12.167863 11.5468467 10.4925368 12.8449537 11.1387083 10.7453437 9.45454545 9.45367741 11.5282146 9.45367741 12.167863 7.35294118 12.816589 9.45367741 14.8951357 9.45367741 13.2029075 10.7453437 13.8497595 12.8449537"></polygon>
                            <polygon id="Star-Copy-3" points="14.7133175 19.2674349 13.0379913 20.5655419 13.6841628 18.4659319 12 17.1742656 14.0736691 17.1742656 14.7133175 15.0735294 15.3620436 17.1742656 17.4405903 17.1742656 15.748362 18.4659319 16.3952141 20.5655419"></polygon>
                            <polygon id="Star-Copy-4" points="22.7133175 19.2674349 21.0379913 20.5655419 21.6841628 18.4659319 20 17.1742656 22.0736691 17.1742656 22.7133175 15.0735294 23.3620436 17.1742656 25.4405903 17.1742656 23.748362 18.4659319 24.3952141 20.5655419"></polygon>
                        </g>
                    </g>
                    <g id="token/usd/blue" transform="translate(137.000000, 200.000000) rotate(-48.000000) translate(-137.000000, -200.000000) translate(116.000000, 179.000000)">
                        <circle id="Oval" fill="#FFFFFF" cx="21.5" cy="20.5" r="19.5"></circle>
                        <g id="usd" stroke-width="1" fill="#07233B">
                            <path d="M21,42 C9.4014375,42 0,32.5985625 0,21 C0,9.4014375 9.4014375,0 21,0 C32.5985625,0 42,9.4014375 42,21 C42,32.5985625 32.5985625,42 21,42 Z M29.53125,25.139625 C29.53125,21.8281875 27.46275,19.957875 22.6235625,18.792375 L22.6235625,12.964875 C24.1198125,13.272 25.55175,13.9164375 26.9521875,14.928375 L28.735875,12.046125 C26.9789608,10.7592667 24.9153496,9.95554448 22.750875,9.715125 L22.750875,7.875 L19.9815,7.875 L19.9815,9.6534375 C16.002,9.9605625 13.2969375,12.229875 13.2969375,15.5413125 C13.2969375,19.0063125 15.46125,20.692875 20.1088125,21.858375 L20.1088125,27.869625 C18.039,27.5625 16.3209375,26.6424375 14.50575,25.2315 L12.46875,28.021875 C14.6491785,29.7004155 17.2471439,30.7506762 19.9815,31.059 L19.9815,34.125 L22.750875,34.125 L22.750875,31.0891875 C26.793375,30.751875 29.53125,28.51275 29.53125,25.139625 Z M20.1075,18.1479375 C17.6570625,17.443125 17.0533125,16.6149375 17.0533125,15.3260625 C17.0533125,13.978125 18.1033125,12.9045 20.1088125,12.7509375 L20.1075,18.1479375 Z M25.774875,25.3535625 C25.774875,26.8261875 24.6290625,27.838125 22.6235625,27.9916875 L22.6235625,22.441125 C25.1068125,23.14725 25.774875,23.974125 25.774875,25.354875 L25.774875,25.3535625 Z" id="Shape" fill-rule="nonzero"></path>
                        </g>
                    </g>
                    <g id="token/btc/blue" transform="translate(317.000000, 68.000000) rotate(-24.000000) translate(-317.000000, -68.000000) translate(296.000000, 47.000000)">
                        <circle id="Oval" fill="#FFFFFF" cx="21.5" cy="20.5" r="19.5"></circle>
                        <g id="btc" stroke-width="1" fill="#07233B">
                            <path d="M21,42 C9.4014375,42 0,32.5985625 0,21 C0,9.4014375 9.4014375,0 21,0 C32.5985625,0 42,9.4014375 42,21 C42,32.5985625 32.5985625,42 21,42 Z M30.4355625,18.40125 C30.8476875,15.65025 28.751625,14.1710625 25.88775,13.1840625 L26.817,9.4565625 L24.549,8.8921875 L23.643375,12.52125 C23.0475,12.371625 22.435875,12.2325 21.8255625,12.093375 L22.73775,8.4406875 L20.46975,7.875 L19.5405,11.6011875 C19.047,11.4883125 18.561375,11.3780625 18.0915,11.2599375 L18.094125,11.248125 L14.965125,10.4671875 L14.361375,12.8900625 C14.361375,12.8900625 16.0453125,13.2759375 16.009875,13.2995625 C16.928625,13.52925 17.094,14.1369375 17.0664375,14.6199375 L16.0085625,18.865875 C16.0715625,18.881625 16.1529375,18.90525 16.2448125,18.9406875 L16.004625,18.881625 L14.5215,24.829875 C14.408625,25.108125 14.1238125,25.5268125 13.4806875,25.368 C13.5043125,25.4008125 11.8321875,24.9571875 11.8321875,24.9571875 L10.7060625,27.5533125 L13.6591875,28.289625 C14.2078125,28.4274375 14.7459375,28.5718125 15.274875,28.707 L14.3364375,32.4765 L16.603125,33.040875 L17.532375,29.313375 C18.151875,29.4800625 18.753,29.6349375 19.341,29.7819375 L18.414375,33.4936875 L20.682375,34.0580625 L21.6208125,30.2964375 C25.4900625,31.0288125 28.3985625,30.7335 29.623125,27.234375 C30.610125,24.41775 29.5745625,22.7915625 27.538875,21.732375 C29.022,21.391125 30.137625,20.4159375 30.4355625,18.40125 L30.4355625,18.40125 Z M25.2511875,25.669875 C24.551625,28.4878125 19.8069375,26.964 18.2686875,26.5820625 L19.5155625,21.588 C21.0538125,21.9725625 25.984875,22.7325 25.2511875,25.669875 Z M25.953375,18.3605625 C25.3141875,20.923875 21.3661875,19.6205625 20.0865,19.301625 L21.21525,14.7735 C22.4949375,15.0924375 26.620125,15.687 25.953375,18.3605625 Z" id="Shape" fill-rule="nonzero"></path>
                        </g>
                    </g>
                    <g id="token/xrp/blue" transform="translate(72.000000, 291.000000) rotate(-59.000000) translate(-72.000000, -291.000000) translate(51.000000, 270.000000)">
                        <circle id="Oval" fill="#FFFFFF" cx="21.5" cy="20.5" r="19.5"></circle>
                        <g id="xrp" stroke-width="1" fill="#07233B">
                            <path d="M21,42 C9.4014375,42 0,32.5985625 0,21 C0,9.4014375 9.4014375,0 21,0 C32.5985625,0 42,9.4014375 42,21 C42,32.5985625 32.5985625,42 21,42 Z M30.279375,10.5 L24.276,16.4364375 C22.4583808,18.2304741 19.5363692,18.2304741 17.71875,16.4364375 L11.720625,10.5 L7.9209375,10.5 L15.8221875,18.3185625 C18.6941789,21.1481814 23.3058211,21.1481814 26.1778125,18.3185625 L34.0738125,10.5 L30.2806875,10.5 L30.279375,10.5 Z M11.6746875,32.2389375 L17.724,26.25 C19.5416192,24.4559634 22.4636308,24.4559634 24.28125,26.25 L30.3253125,32.2389375 L34.125,32.2389375 L26.1778125,24.373125 C23.3058211,21.5435061 18.6941789,21.5435061 15.8221875,24.373125 L7.875,32.237625 L11.6746875,32.237625 L11.6746875,32.2389375 Z" id="Shape" fill-rule="nonzero"></path>
                        </g>
                    </g>
                    <g id="token/ada/blue" transform="translate(27.000000, 393.000000) rotate(-72.000000) translate(-27.000000, -393.000000) translate(6.000000, 372.000000)">
                        <circle id="Oval" fill="#FFFFFF" cx="21.5" cy="20.5" r="19.5"></circle>
                        <g id="ada" stroke-width="1" fill="#07233B">
                            <path d="M21,42 C9.4014375,42 0,32.5985625 0,21 C0,9.4014375 9.4014375,0 21,0 C32.5985625,0 42,9.4014375 42,21 C42,32.5985625 32.5985625,42 21,42 Z M20.6390625,7.95375 C20.1271875,8.15325 19.9959375,8.8816875 20.3949375,9.2505 C20.771625,9.6350625 21.506625,9.499875 21.700875,8.9971875 C22.0355625,8.379 21.26775,7.6295625 20.63775,7.9524375 L20.6390625,7.95375 Z M13.873125,8.670375 C13.3415625,8.8095 13.2825,9.63375 13.7983125,9.830625 C14.188125,10.040625 14.7406875,9.7138125 14.7,9.2701875 C14.739375,8.859375 14.2550625,8.5155 13.873125,8.670375 L13.873125,8.670375 Z M27.7305,9.8424375 C28.137375,9.9448125 28.43925,9.6193125 28.53375,9.2649375 C28.468125,8.848875 28.058625,8.4485625 27.6136875,8.6611875 C27.0388125,8.8475625 27.1333125,9.7715625 27.7305,9.8424375 L27.7305,9.8424375 Z M15.4126875,11.50275 C14.8141875,11.804625 14.7315,12.702375 15.274875,13.0935 C15.836625,13.59225 16.8315,13.164375 16.8643125,12.4280625 C16.96275,11.697 16.0505625,11.1050625 15.4126875,11.50275 Z M25.1645625,11.925375 C24.808875,12.628875 25.5268125,13.43475 26.284125,13.295625 C26.8550625,13.10925 27.250125,12.4306875 26.9285625,11.883375 C26.604375,11.179875 25.449375,11.2021875 25.1645625,11.925375 Z M19.824,13.2549375 C19.789875,13.7615625 20.1586875,14.1763125 20.59575,14.387625 C20.881875,14.4046875 21.1929375,14.4585 21.4554375,14.314125 C22.0303125,14.06475 22.3138125,13.314 21.994875,12.768 C21.82425,12.37425 21.391125,12.20625 20.9934375,12.1275 C20.3923125,12.1708125 19.8174375,12.6328125 19.824,13.2549375 Z M9.762375,14.1605625 C9.253125,14.39025 9.18225,15.1659375 9.631125,15.4888125 C10.05375,15.8326875 10.791375,15.6135 10.912125,15.0740625 C11.1339375,14.450625 10.3464375,13.8061875 9.762375,14.15925 L9.762375,14.1605625 Z M31.36875,14.1579375 C30.8595,14.4650625 30.9159375,15.2840625 31.4566875,15.5229375 C31.9475625,15.8116875 32.655,15.3890625 32.620875,14.828625 C32.6799375,14.214375 31.8635625,13.7799375 31.36875,14.15925 L31.36875,14.1579375 Z M22.65375,15.274875 C21.63525,15.579375 21.0315,16.79475 21.44625,17.766 C21.811125,18.8514375 23.2535625,19.3554375 24.241875,18.760875 C25.1934375,18.2581875 25.52025,16.923375 24.906,16.0479375 C24.441375,15.3313125 23.470125,14.9848125 22.65375,15.274875 L22.65375,15.274875 Z M17.8591875,15.3706875 C16.8945,15.794625 16.450875,17.0454375 16.9509375,17.9668125 C17.3971875,18.918375 18.6965625,19.3095 19.6179375,18.7936875 C20.538,18.335625 20.9356875,17.1005625 20.4211875,16.2133125 C19.984125,15.3024375 18.7648125,14.949375 17.8591875,15.3706875 L17.8591875,15.3706875 Z M13.059375,16.98375 C12.9268125,17.658375 13.5384375,18.3435 14.238,18.283125 C14.87325,18.2870625 15.3365625,17.710875 15.3759375,17.1215625 C15.3049294,16.5258554 14.8307711,16.0587822 14.2340625,15.99675 C13.678875,16.036125 13.1289375,16.4101875 13.059375,16.98375 L13.059375,16.98375 Z M27.237,16.12275 C26.4665625,16.47975 26.410125,17.661 27.1516875,18.081 C27.8656875,18.585 28.9681875,17.9799375 28.919625,17.12025 C28.951125,16.309125 27.9549375,15.7119375 27.237,16.12275 L27.237,16.12275 Z M15.910125,19.1506875 C14.770875,19.4210625 14.104125,20.7991875 14.65275,21.826875 C15.1318125,22.94775 16.786875,23.2785 17.684625,22.456875 C18.3855,21.8964375 18.56925,20.834625 18.1190625,20.07075 C17.7069375,19.312125 16.7475,18.923625 15.9088125,19.1506875 L15.910125,19.1506875 Z M25.0018125,19.14675 C23.8546875,19.4551875 23.2483125,20.8858125 23.85075,21.89775 C24.3495,22.876875 25.7499375,23.205 26.65425,22.58025 C27.5165625,22.0408125 27.7935,20.792625 27.213375,19.9565625 C26.775,19.2255 25.816875,18.9170625 25.0018125,19.14675 L25.0018125,19.14675 Z M10.5118125,20.099625 C9.8161875,20.293875 9.610125,21.286125 10.1679375,21.7310625 C10.644375,22.2061875 11.5670625,21.9673125 11.746875,21.3241875 C12.0395625,20.61675 11.2363125,19.8305625 10.5118125,20.099625 L10.5118125,20.099625 Z M30.158625,21.126 C30.279375,21.401625 30.4250625,21.690375 30.709875,21.832125 C31.318875,22.1615625 32.1785625,21.685125 32.132625,20.9829375 C32.172,20.4500625 31.689,20.0563125 31.192875,19.978875 C30.5918086,20.0127744 30.1303052,20.5246449 30.158625,21.126 Z M6.948375,20.44875 C6.5874375,20.6101875 6.43125,21.091875 6.69375,21.4055625 C6.990375,21.85575 7.8001875,21.648375 7.8225,21.1089375 C7.9235625,20.6325 7.384125,20.2610625 6.948375,20.44875 L6.948375,20.44875 Z M34.4439375,20.4369375 C33.9320625,20.706 34.132875,21.6339375 34.752375,21.5788125 C35.193375,21.6444375 35.571375,21.1155 35.3653125,20.729625 C35.24325,20.3765625 34.7510625,20.223 34.4439375,20.4369375 L34.4439375,20.4369375 Z M18.277875,23.0265 C17.4195,23.21025 16.758,24.0121875 16.760625,24.8758125 C16.7304375,25.7775 17.443125,26.6385 18.351375,26.782875 C19.5260625,27.05325 20.740125,26.0124375 20.6653125,24.83775 C20.65875,23.674875 19.425,22.7338125 18.2765625,23.0265 L18.277875,23.0265 Z M22.82175,23.0251875 C22.131375,23.1931875 21.546,23.753625 21.39375,24.4426875 C21.091875,25.475625 21.889875,26.6450625 22.9726875,26.782875 C24.1224375,27.01125 25.29975,26.0045625 25.2380625,24.8521875 C25.2564375,23.6630625 23.9859375,22.7049375 22.8230625,23.0251875 L22.82175,23.0251875 Z M14.0595,23.7405 C13.1893125,23.827125 12.7299375,24.9781875 13.3441875,25.606875 C13.8691875,26.263125 15.0556875,26.04525 15.2945625,25.242 C15.621375,24.4899375 14.865375,23.6053125 14.0608125,23.7405 L14.0595,23.7405 Z M27.386625,23.7759375 C26.5190625,24.047625 26.373375,25.3509375 27.1700625,25.7919375 C27.87225,26.2854375 28.961625,25.7026875 28.93275,24.85875 C28.987875,24.0909375 28.105875,23.480625 27.386625,23.7759375 L27.386625,23.7759375 Z M31.1115,27.4509375 C31.3018125,27.9733125 32.095875,28.098 32.4463125,27.6609375 C32.704875,27.426 32.6405625,27.061125 32.6025,26.7553125 C32.4174375,26.5663125 32.214,26.341875 31.9239375,26.347125 C31.3411875,26.2513125 30.830625,26.935125 31.1115,27.4509375 Z M9.75975,26.4901875 C9.2413125,26.7500625 9.2229375,27.5625 9.7243125,27.8473125 C10.1915625,28.1623125 10.9003125,27.846 10.964625,27.292125 C11.088,26.6660625 10.3044375,26.1345 9.75975,26.4915 L9.75975,26.4901875 Z M20.5130625,27.649125 C19.6546875,27.9208125 19.5260625,29.2149375 20.299125,29.654625 C20.9960625,30.1665 22.1195625,29.575875 22.06575,28.72275 C22.134,27.951 21.22575,27.3406875 20.5130625,27.649125 L20.5130625,27.649125 Z M15.5334375,28.7923125 C15.1055625,28.9498125 14.931,29.4144375 14.923125,29.8305 C15.070125,30.2124375 15.36675,30.615375 15.8221875,30.6245625 C16.3734375,30.7059375 16.9168125,30.2386875 16.8984375,29.6900625 C16.9535625,29.0206875 16.1398125,28.478625 15.5334375,28.7923125 L15.5334375,28.7923125 Z M25.6213125,28.8028125 C25.0123125,29.108625 24.9440625,30.032625 25.5058125,30.4171875 C26.08725,30.9080625 27.09,30.4303125 27.07425,29.6821875 C27.1333125,28.9681875 26.2460625,28.4221875 25.6213125,28.8028125 Z M27.376125,33.0684375 C27.6609375,33.5488125 28.49175,33.3781875 28.5455625,32.8190625 C28.6216875,32.4043125 28.2384375,32.1365625 27.8761875,32.064375 C27.4246875,32.158875 27.097875,32.6563125 27.376125,33.06975 L27.376125,33.0684375 Z M13.4491875,32.710125 C13.4885625,33.1813125 14.0109375,33.5895 14.4598125,33.2915625 C14.959875,33.0290625 14.7905625,32.1825 14.219625,32.143125 C13.8271875,32.0578125 13.5594375,32.3833125 13.4491875,32.710125 Z M20.1691875,33.0868125 C19.968375,33.576375 20.44875,34.1683125 20.9803125,34.106625 C21.2664375,34.1131875 21.48825,33.912375 21.6601875,33.712875 C21.693,33.5776875 21.727125,33.4411875 21.7651875,33.306 C21.6943125,33.046125 21.6129375,32.741625 21.3346875,32.6235 C20.9146875,32.36625 20.278125,32.6025 20.167875,33.0868125 L20.1691875,33.0868125 Z" id="Shape" fill-rule="nonzero"></path>
                        </g>
                    </g>
                    <g id="token/grin/blue" transform="translate(220.000000, 125.000000) rotate(-37.000000) translate(-220.000000, -125.000000) translate(199.000000, 104.000000)">
                        <circle id="Oval" fill="#FFFFFF" cx="21.5" cy="20.5" r="19.5"></circle>
                        <g id="grin" stroke-width="1" fill="#07233B">
                            <path d="M21,42 C9.4014375,42 0,32.5985625 0,21 C0,9.4014375 9.4014375,0 21,0 C32.5985625,0 42,9.4014375 42,21 C42,32.5985625 32.5985625,42 21,42 Z M29.715,12.558 C29.26875,11.5591875 28.8553125,9.5851875 27.7134375,9.1455 C26.2434375,8.581125 25.3365,12.27975 25.1199375,13.21425 L24.90075,13.21425 C24.530625,11.613 24.0345,9.342375 22.27575,8.838375 C21.462,12.2574375 23.12625,15.94425 24.682875,18.9039375 C26.3445,18.1085625 27.1543125,15.6226875 27.307875,13.8705 L27.5270625,13.8705 L29.2779375,19.1218125 C30.68625,18.7175625 31.1758125,17.3236875 31.68375,16.0584375 C32.77575,13.3441875 33.691875,10.0051875 32.99625,7.0875 C30.89625,7.683375 30.25575,10.6876875 29.715,12.558 Z M8.70975,19.5601875 C10.58925,18.6624375 11.484375,15.8195625 11.773125,13.8705 L11.991,13.8705 C12.214125,14.81025 12.8086875,17.233125 13.9820625,17.388 C15.4783125,17.5861875 16.261875,14.2681875 16.366875,13.21425 L16.5860625,13.21425 C17.0625,14.8614375 17.5651875,17.00475 19.2110625,17.8093125 C19.8200625,15.2578125 19.0929375,12.537 18.15975,10.150875 C17.9195625,9.5379375 17.427375,7.882875 16.5808125,7.882875 C15.1948125,7.882875 14.4151875,11.536875 14.1789375,12.558 L13.9610625,12.558 L12.2101875,7.3066875 C9.1310625,8.7766875 7.4589375,16.59525 8.70975,19.5601875 Z M5.4271875,22.1851875 C7.7109375,32.1523125 18.251625,37.8039375 27.74625,33.5934375 C31.1884993,32.0639194 33.9535138,29.3297104 35.5215,25.9048125 C35.9296875,25.0201875 36.731625,23.417625 36.264375,22.2560625 C35.7984375,21.0984375 31.2834375,22.9884375 30.1546875,23.48325 C29.9962604,23.5532913 29.884449,23.6992397 29.8580625,23.8704375 C29.8208023,24.1133647 29.886591,24.3608217 30.0395736,24.5531711 C30.1925561,24.7455205 30.418857,24.8653163 30.6639375,24.8836875 L32.5591875,25.0306875 C29.127,31.6745625 19.8463125,34.6119375 13.3048125,29.3041875 C11.8400625,28.116375 10.534125,26.7054375 9.65475,25.0306875 C9.2295,24.220875 8.8344375,23.1853125 8.1125625,22.6288125 C7.4169375,22.0959375 6.3643125,21.9121875 5.4271875,22.1851875 L5.4271875,22.1851875 Z" id="Shape" fill-rule="nonzero"></path>
                        </g>
                    </g>
                </g>
                <g id="token/xrp/blue" transform="translate(29.000000, 496.000000) scale(-1, 1) rotate(-59.000000) translate(-29.000000, -496.000000) translate(8.000000, 475.000000)">
                    <circle id="Oval" fill="#FFFFFF" cx="21.5" cy="20.5" r="19.5"></circle>
                    <g id="xrp" stroke-width="1" fill="#07233B">
                        <path d="M21,42 C9.4014375,42 0,32.5985625 0,21 C0,9.4014375 9.4014375,0 21,0 C32.5985625,0 42,9.4014375 42,21 C42,32.5985625 32.5985625,42 21,42 Z M30.279375,10.5 L24.276,16.4364375 C22.4583808,18.2304741 19.5363692,18.2304741 17.71875,16.4364375 L11.720625,10.5 L7.9209375,10.5 L15.8221875,18.3185625 C18.6941789,21.1481814 23.3058211,21.1481814 26.1778125,18.3185625 L34.0738125,10.5 L30.2806875,10.5 L30.279375,10.5 Z M11.6746875,32.2389375 L17.724,26.25 C19.5416192,24.4559634 22.4636308,24.4559634 24.28125,26.25 L30.3253125,32.2389375 L34.125,32.2389375 L26.1778125,24.373125 C23.3058211,21.5435061 18.6941789,21.5435061 15.8221875,24.373125 L7.875,32.237625 L11.6746875,32.237625 L11.6746875,32.2389375 Z" id="Shape" fill-rule="nonzero"></path>
                    </g>
                </g>
            </g>
        </g>
    </g>
</svg>